<svg width="83" height="56" viewBox="0 0 83 56" fill="none" xmlns="http://www.w3.org/2000/svg">
<g clip-path="url(#clip0_2_2)">
<path d="M-2 44.25C-2 33.1 -1.9488 32.5 -1.02711 32.5C-0.310241 32.5 -0.00301191 33 0.253012 34.5C1.43072 41.9 9.26506 49.55 16.9458 50.9C19.9669 51.4 23.8584 50.9 26.6747 49.55C27.9036 49 29.6958 48.5 30.6175 48.5C32.1536 48.5 32.3072 48.65 32.3072 50V51.55L36.0452 51.4L39.7319 51.25L39.9879 39C40.2952 24.95 40.3976 24.55 44.8012 21.6C47.1566 20.05 47.4639 20 52.2259 20C57.3976 20 58.9337 20.5 61.75 23.15C64.8223 26.05 65.5392 34.55 63.0813 38.6C60.9307 42.05 57.1928 44 52.738 44H50.2289V47.45C50.2289 49.4 50.4337 51.05 50.6898 51.2C51.5602 51.75 57.0904 50.5 60.1627 49.1C67.6386 45.6 72.9126 37.2 72.0422 30.1C71.8373 28.6 71.5301 27.1 71.3253 26.8C71.1205 26.5 70.7108 25.55 70.4548 24.75C68.7651 20.15 62.5181 14.75 56.9879 13.2C53.4036 12.15 48.0783 12.5 45.1596 13.95C44.0331 14.55 42.3946 15 41.5753 15C40.2952 15 40.0392 14.8 39.8855 13.65L39.7319 12.25L31.2831 12.1C17.3042 11.85 12.2861 13.05 6.5512 18.05C3.68373 20.55 0.918675 25.15 0.304217 28.65C0.0481928 30 -0.310241 30.5 -1.02711 30.5C-1.9488 30.5 -2 29.85 -2 15.25V0H40.5H83V28V56H40.5H-2V44.25ZM39.8855 4.15L40.0392 2.5H36.7108C33.3313 2.5 33.3313 2.5 33.3313 3.9C33.3313 5.9 33.6386 6.05 36.9157 5.9C39.6807 5.75 39.7319 5.7 39.8855 4.15Z" fill="white"/>
<path d="M16.75 43.45C14.6 42.85 11.65 40.2 10.4 37.85C8.74999 34.7 8.79999 28.55 10.5 25.5C11.2 24.3 12.7 22.6 13.85 21.7L15.9 20.15L24.35 19.9C28.95 19.75 32.9 19.75 33.15 19.85C33.35 19.95 33.5 23.35 33.45 27.4C33.45 33.3 33.25 35.2 32.55 37C31.35 39.9 28.9 42.25 26.1 43.25C23.65 44.05 19.15 44.2 16.75 43.45Z" fill="white"/>
<path d="M16.903 52.4977C6.38976 50.4666 -1.7705 38.7259 0.332139 28.6199C1.28334 23.9137 3.63629 19.6534 6.7402 16.9287C12.4974 11.8262 17.0532 10.7859 32.4225 11.0336L42.1848 11.1822L42.335 12.5197C42.4351 13.461 42.7355 13.7582 43.2361 13.5601C44.2874 13.1638 44.2374 26.0439 43.186 28.075C42.6353 29.1153 42.4351 31.1464 42.4351 35.3572C42.4351 40.113 42.2849 41.5496 41.4839 43.0358C40.0821 45.7604 36.0771 49.9713 33.8743 51.1107C31.9219 52.0519 31.9219 52.0519 31.9219 51.0611C31.9219 49.8722 32.0721 49.8722 29.4187 51.1107C27.4162 52.1014 22.46 53.0922 20.1571 52.9931C19.6064 52.9436 18.1546 52.7454 16.903 52.4977ZM24.4625 41.8964C27.4162 40.9056 29.9694 38.3791 31.0708 35.3572C31.7717 33.4252 31.9219 31.6914 31.8217 27.3815C31.7216 24.31 31.5214 21.8331 31.3211 21.8331C31.0708 21.8331 27.9168 21.8331 24.2122 21.8331H17.5037L15.301 23.4679C9.4436 27.9264 9.19328 35.5554 14.7503 40.113C17.8041 42.6395 20.7078 43.1349 24.4625 41.8964Z" fill="#177E6E"/>
<path d="M32 51.3C32 50 32.25 49.5 32.95 49.25C34.2 48.9 38.75 43.95 39.85 41.8C40.3 40.95 41.05 39 41.55 37.5L42.45 34.75L42.35 43.75L42.25 52.75L37.15 52.9L32 53.05V51.3Z" fill="#8CBE1C"/>
<path d="M49.85 52.65C49.65 52.5 49.5 50.1 49.5 47.4V42.5H51.95C60.05 42.5 65.45 35.35 62.75 28.15C61.15 23.75 57.8 21.5 52.95 21.5C50 21.5 49.3 21.7 47.2 23.1C45.65 24.15 44.35 25.55 43.7 26.9C43.1 28.1 42.55 28.85 42.45 28.55C42.35 28.25 42.3 24.75 42.4 20.75L42.55 13.5L44.45 12.55C47.05 11.2 52.6 10.5 56.25 11.1C59.65 11.6 63.4 13.2 66.1 15.3C68.35 17.05 71.9 21.75 72.35 23.5C72.5 24.2 72.85 25.05 73.1 25.35C73.4 25.7 73.75 27.85 73.85 30.15C74.45 39.1 70 46.85 62.2 50.6C58.25 52.45 50.85 53.7 49.85 52.65Z" fill="#8CBE1C"/>
<path d="M33 7.48174C32.8 7.27918 33 5.55747 33 3.93704V1H37.75H42.4V3.93704V7.48174H37.75C35.4 7.53237 33.2 7.68429 33 7.48174Z" fill="black"/>
</g>
<defs>
<clipPath id="clip0_2_2">
<rect width="83" height="56" fill="white"/>
</clipPath>
</defs>
</svg>
